<?xml version="1.0" encoding="utf-8"?>
<!-- Generator: Adobe Illustrator 27.5.0, SVG Export Plug-In . SVG Version: 6.00 Build 0)  -->
<svg version="1.1" xmlns="http://www.w3.org/2000/svg" xmlns:xlink="http://www.w3.org/1999/xlink" x="0px" y="0px"
	 viewBox="0 0 500 500" style="enable-background:new 0 0 500 500;" xml:space="preserve">
<g id="BACKGROUND">
	<g>
		<g>
			<g>
				<g>
					<rect style="fill:#FFFFFF;" width="500" height="500"/>
				</g>
			</g>
		</g>
	</g>
</g>
<g id="OBJECTS">
	<g>
		
			<ellipse transform="matrix(0.7071 -0.7071 0.7071 0.7071 -21.242 232.7895)" style="fill:none;stroke:#EDEEEF;stroke-miterlimit:10;" cx="270.381" cy="142.036" rx="90.679" ry="90.679"/>
		
			<ellipse transform="matrix(0.7071 -0.7071 0.7071 0.7071 -21.242 232.7895)" style="fill:#F4D6A6;" cx="270.381" cy="142.036" rx="60.103" ry="60.103"/>
		<polyline style="fill:none;stroke:#FFFFFF;stroke-width:2;stroke-miterlimit:10;" points="270.381,89.418 270.381,142.036 
			307.104,142.036 		"/>
	</g>
	<g>
		<g>
			<path style="fill:#999999;" d="M288.039,447.792c0-3.397-2.754-6.151-6.151-6.151h-37.546V340.534h-6.151v101.107h-37.546
				c-3.397,0-6.151,2.754-6.151,6.151h43.697v3.474h6.151v-3.474H288.039z"/>
			<path style="fill:#F4A81C;" d="M299.968,347.47H182.566c-3.831,0-6.936-3.105-6.936-6.936l0,0c0-3.831,3.105-6.936,6.936-6.936
				h117.403c3.831,0,6.936,3.106,6.936,6.936l0,0C306.905,344.365,303.799,347.47,299.968,347.47z"/>
			<g>
				<circle style="fill:#CCCCCC;" cx="195.612" cy="453.171" r="7.768"/>
				<circle style="fill:#CCCCCC;" cx="240.15" cy="453.171" r="7.768"/>
				<circle style="fill:#CCCCCC;" cx="286.922" cy="453.171" r="7.768"/>
			</g>
		</g>
		<g>
			<g>
				<polygon style="fill:#F5AA8E;" points="259.316,439.976 257.849,453.123 274.414,453.123 278.621,439.976 				"/>
				<path style="fill:#333333;" d="M256.534,464.956h36.548c0,0,2.512-10.192-19.444-8.877l0.775-2.955h-16.565L256.534,464.956z"/>
			</g>
			<g>
				<polygon style="fill:#F5AA8E;" points="212.566,439.976 211.099,453.123 227.664,453.123 231.871,439.976 				"/>
				<path style="fill:#333333;" d="M209.784,464.956h36.548c0,0,2.512-10.192-19.444-8.877l0.775-2.955h-16.565L209.784,464.956z"/>
			</g>
			<path style="fill:#333333;" d="M196.219,313.078c0,0-4.957,21.012,5.711,40.111c8.573,15.348,8.573,18.785,8.573,18.785
				l-0.61,69.896h24.137l13.598-67.146l-5.042-63.479L196.219,313.078z"/>
			<path style="fill:#333333;" d="M246.191,356.625l14.845,17.182l-4.7,68.062h22.724c0,0,20.331-59.057,19.9-77.458
				c-0.344-14.699-15.125-56.833-15.125-56.833l-41.25,3.667L246.191,356.625z"/>
			<line style="fill:#050505;" x1="245.222" y1="317.776" x2="246.191" y2="356.625"/>
		</g>
		<path style="fill:#F5AA8E;" d="M284.903,265.424c0,0,7.36,18.931,18.36,22.274c11,3.343,20.862-3.556,20.862-12.891
			c0-9.335-16.509-28.646-16.509-28.646L284.903,265.424z"/>
		<path style="fill:#4EA6B8;" d="M180.692,252.579l16.423,11.181l9.432,43.819h82.79l-4.434-42.154l22.714-19.262
			c0,0-20.894-23.045-44.909-31.17c-3.644-1.233-4.798-0.934-8.662-1.411C224.712,209.954,189.42,216.37,180.692,252.579z"/>
		<polygon style="fill:#FCEC8C;" points="223.593,214.097 222.305,234.704 244.154,224.4 264.128,234.475 262.707,214.992 		"/>
		<line style="fill:none;stroke:#FCEC8C;stroke-miterlimit:10;" x1="244.154" y1="229.433" x2="244.154" y2="302.995"/>
		<path style="fill:#F5AA8E;" d="M180.692,252.579c0,0-15.563,52.25-5.938,55s47.208,3.667,47.208,3.667v-16.958l-20.31-9.449
			l-4.537-21.079L180.692,252.579z"/>
		<g>
			<path style="fill:#BA686E;" d="M201.652,284.838c-1.667,0.074-3.29,0.366-4.855,0.794c-1.563,0.441-3.06,1.075-4.424,1.917
				c-1.37,0.827-2.643,1.838-3.711,3.054c-1.122,1.176-2.009,2.556-2.908,3.97c0.286-0.778,0.571-1.576,0.948-2.33
				c0.422-0.728,0.804-1.495,1.363-2.141c1.001-1.384,2.339-2.511,3.793-3.409C194.788,284.913,198.359,284.235,201.652,284.838z"/>
		</g>
		<path style="fill:#F5AA8E;" d="M292.364,200.205l-11.413,12.424c0,0,6.529,56.582,22.533,69.283
			c3.968,3.149,6.069,6.552,12.379,4.813C343.957,278.979,292.364,200.205,292.364,200.205z"/>
		<g>
			<path style="fill:#BA686E;" d="M290.984,260.517c0.375,1.06,0.74,2.115,1.174,3.145c0.399,1.042,0.833,2.068,1.289,3.082
				c0.924,2.024,1.908,4.013,3.016,5.932c1.071,1.942,2.331,3.765,3.642,5.551l1.017,1.318c0.354,0.427,0.735,0.831,1.099,1.252
				c0.685,0.889,1.544,1.6,2.293,2.449c-1.827-1.302-3.544-2.804-5.007-4.534c-1.483-1.709-2.8-3.569-3.912-5.539
				c-1.109-1.972-2.09-4.016-2.858-6.14C291.968,264.914,291.323,262.743,290.984,260.517z"/>
		</g>
		<g>
			<rect x="135.846" y="307.578" style="fill:#DF437B;" width="225.041" height="5.829"/>
			<g>
				<rect x="150.358" y="313.407" style="fill:#DF437B;" width="6.011" height="151.548"/>
				<rect x="340.363" y="313.407" style="fill:#DF437B;" width="6.011" height="151.548"/>
			</g>
		</g>
		<g>
			<path style="fill:#B9D5E9;" d="M278.177,307.578h-65.91c-2.344,0-4.245-1.9-4.245-4.245v-41.464c0-2.344,1.9-4.245,4.245-4.245
				h65.91c2.344,0,4.245,1.9,4.245,4.245v41.464C282.422,305.678,280.521,307.578,278.177,307.578z"/>
			<polygon style="fill:#D3E6F2;" points="224.174,307.578 214.23,307.578 253.535,257.625 263.479,257.625 			"/>
			<polygon style="fill:#D3E6F2;" points="232.093,307.578 227.121,307.578 266.426,257.625 271.398,257.625 			"/>
		</g>
		<g>
			<path style="fill:#F5AA8E;" d="M292.364,200.205l-8.589,13.891c0,0-14.842-7.265-16.591-12.1
				c-1.749-4.836,2.199-12.763,2.199-12.763S290.712,178.214,292.364,200.205z"/>
			<path style="fill:#333333;" d="M290.638,201.085l-12.808,6.524c-1.156,0.589-2.565,0.022-2.992-1.203l-8.514-24.46
				c-0.33-0.948,0.043-1.998,0.898-2.525l11.546-7.119c1.137-0.701,2.631-0.201,3.116,1.044l9.776,25.056
				C292.059,199.425,291.617,200.585,290.638,201.085z"/>
			<path style="fill:#828282;" d="M268.669,182.03l6.81,20.109c0.177,0.522,0.779,0.76,1.265,0.501l10.547-5.632
				c0.391-0.209,0.57-0.674,0.419-1.091l-7.303-20.15c-0.188-0.519-0.797-0.744-1.277-0.473l-10.053,5.672
				C268.702,181.177,268.531,181.624,268.669,182.03z"/>
			<path style="fill:#F5AA8E;" d="M292.917,196.691c-1.785,2.232-8.818,5.674-10.098,2.32c-1.262-3.309,1.284-5.07,3.529-6.159
				C292.04,190.09,296.848,191.775,292.917,196.691z"/>
			<path style="fill:#F5AA8E;" d="M288.927,185.863c-2.021,2.021-9.131,6.563-10.803,3.087c-1.191-2.477,2.224-5.647,4.523-6.684
				C287.625,180.019,292.915,181.874,288.927,185.863z"/>
			<path style="fill:#F5AA8E;" d="M286.558,180.874c-1.738,2.269-9.946,6.743-11.178,3.088c-1.068-3.17,2.233-4.95,4.523-6.006
				C284.281,175.937,290.011,176.367,286.558,180.874z"/>
			<path style="fill:#F5AA8E;" d="M291.524,191.197c-1.785,2.232-9.89,6.969-11.202,3.342c-1.312-3.627,2.382-5.352,4.523-6.684
				C290.124,184.57,295.454,186.281,291.524,191.197z"/>
			<g>
				<path style="fill:#BA686E;" d="M279.061,185.175c0.894-1.088,1.999-1.897,3.17-2.599c0.594-0.336,1.209-0.646,1.862-0.879
					c0.644-0.234,1.347-0.425,2.059-0.367c-0.609,0.348-1.151,0.713-1.717,1.069c-0.558,0.364-1.13,0.699-1.702,1.042
					C281.571,184.099,280.397,184.741,279.061,185.175z"/>
			</g>
			<g>
				<path style="fill:#BA686E;" d="M281.557,190.077c0.828-1.088,1.915-1.874,3.065-2.529c1.162-0.628,2.429-1.125,3.795-1.195
					c-1.09,0.816-2.191,1.434-3.312,2.07C283.972,189.031,282.842,189.633,281.557,190.077z"/>
			</g>
			<g>
				<path style="fill:#BA686E;" d="M283.035,195.831c1.016-1.19,2.256-2.096,3.574-2.875c0.667-0.376,1.356-0.722,2.087-0.98
					c0.725-0.258,1.496-0.473,2.288-0.439c-0.687,0.37-1.312,0.764-1.955,1.144l-1.922,1.141
					C285.803,194.555,284.499,195.29,283.035,195.831z"/>
			</g>
		</g>
		<g>
			<path style="fill:#F5AA8E;" d="M217.367,181.532c-0.81,10.339-4.747,30.122,12.619,39.518
				c17.366,9.396,38.36-3.023,39.452-23.348c1.96-36.459-12.401-42.904-25.425-42.904S219.076,159.718,217.367,181.532z"/>
			<path style="fill:#F5AA8E;" d="M219.67,185.501c0,0-4.698-6.302-7.792-1.719c-3.094,4.583-1.604,16.5,3.896,16.5
				c5.5,0,5.385-1.375,5.385-1.375L219.67,185.501z"/>
			<path style="fill:#F5AA8E;" d="M266.435,185.501c0,0,4.698-6.302,7.792-1.719c3.094,4.583,1.604,16.5-3.896,16.5
				c-5.5,0-5.385-1.375-5.385-1.375L266.435,185.501z"/>
			<path style="fill:#333333;" d="M217.26,183.145c0,0,6.86-9.167,8.509-15.64c0,0,26.416,2.581,33.375-1.037
				c0,0,4.339,15.12,10.1,16.41c0,0,2.359-24.081-5.433-29.123c-7.792-5.042-35.75-8.708-42.969,1.375
				S214.725,177.08,217.26,183.145z"/>
			<path style="fill:none;stroke:#BA686E;stroke-miterlimit:10;" d="M213.313,187.803c0,0,2.922-0.681,4.039,2.406"/>
			<path style="fill:none;stroke:#BA686E;stroke-miterlimit:10;" d="M272.762,187.803c0,0-2.922-0.681-4.039,2.406"/>
			<g>
				<path style="fill:#BA686E;" d="M268.432,203.941c-0.03-1.294,0.185-2.551,0.271-3.718l0.044-0.604l0.632,0.188
					c0.258,0.077,0.625,0.151,0.948,0.152c0.332-0.002,0.672-0.014,1.001-0.112c0.329-0.088,0.667-0.205,0.987-0.386
					c0.332-0.166,0.637-0.392,0.979-0.615c-0.292,0.75-0.891,1.406-1.682,1.781c-0.396,0.179-0.834,0.289-1.275,0.301
					c-0.45,0.01-0.863-0.029-1.334-0.216l0.677-0.416c-0.068,0.677-0.238,1.289-0.445,1.895
					C269.023,202.794,268.774,203.383,268.432,203.941z"/>
			</g>
		</g>
		<path style="fill:none;stroke:#BA686E;stroke-miterlimit:10;" d="M233.706,208.891c0,0,9.416,7.943,17.875-0.516"/>
		<g>
			<path style="fill:#333333;" d="M232.118,195.152c0,1.021-0.828,1.849-1.849,1.849c-1.021,0-1.849-0.828-1.849-1.849
				c0-1.021,0.828-1.849,1.849-1.849C231.29,193.303,232.118,194.131,232.118,195.152z"/>
			<path style="fill:none;stroke:#333333;stroke-miterlimit:10;" d="M234.136,184.57c0,0-3.317-4.417-7.734,0"/>
		</g>
		<g>
			<path style="fill:#333333;" d="M253.412,195.152c0,1.021,0.828,1.849,1.849,1.849c1.021,0,1.849-0.828,1.849-1.849
				c0-1.021-0.828-1.849-1.849-1.849C254.239,193.303,253.412,194.131,253.412,195.152z"/>
			<path style="fill:none;stroke:#333333;stroke-miterlimit:10;" d="M251.394,184.57c0,0,3.317-4.417,7.734,0"/>
		</g>
		<path style="fill:none;stroke:#BA686E;stroke-miterlimit:10;" d="M242.042,186.473l-2.922,16.406c0,0,2.836,3.523,7.047,0.258"/>
		<g>
			<g>
				<path style="fill:#E28A3B;" d="M146.394,281.693c0,0-5.564-6.542-9.281-1.385c-3.717,5.156-1.891,16.328,0.516,18.734
					c2.406,2.406,9.797,0.859,9.797,0.859v-4.641c0,0-6.078,1.953-7.214-2c-1.516-5.277,0.211-9.716,2.219-9.219
					c2.008,0.497,3.276,1.766,3.276,1.766L146.394,281.693z"/>
				<path style="fill:#ED9B43;" d="M166.631,307.578h-20.523c-0.849,0-1.547-0.671-1.581-1.519l-1.249-31.289
					c-0.036-0.898,0.682-1.645,1.581-1.645h23.02c0.899,0,1.617,0.747,1.581,1.645l-1.249,31.289
					C168.178,306.908,167.48,307.578,166.631,307.578z"/>
				<polygon style="fill:#FFDBBB;" points="143.41,278.076 143.699,285.31 169.04,285.31 169.329,278.076 				"/>
			</g>
			<path style="fill:#EDEEEF;" d="M174.248,260.99c1.744-1.806,2.348-4.629,1.496-6.991c-0.852-2.362-3.119-4.149-5.615-4.427
				c0.429-2.954,0.858-5.908,1.286-8.862c0.34-2.342,0.649-4.876-0.485-6.953c-1.51-2.765-5.183-3.731-8.261-3.06
				c-3.078,0.671-5.703,2.609-8.225,4.499c0.105-2.307,0.202-4.673-0.51-6.87c-0.712-2.197-2.417-4.224-4.689-4.64
				c-2.704-0.495-5.378,1.456-6.625,3.905c-1.247,2.45-1.392,5.292-1.512,8.038c-1.995-2.484-6.238-2.227-8.446,0.07
				s-2.535,5.947-1.495,8.958c1.04,3.011,3.231,5.483,5.58,7.635c-2.002,0.644-2.466,3.552-1.265,5.278
				c1.201,1.726,3.409,2.438,5.497,2.688c2.515,0.301,5.071,0.099,7.583,0.426c2.511,0.327,5.105,1.304,6.559,3.377
				c1.243,1.774,1.063,5.127,0.218,7.021C159.379,267.045,173.144,262.134,174.248,260.99z"/>
		</g>
	</g>
	<g>
		<g>
			<path style="fill:#77BC87;" d="M360.952,378.613c1.444-7.212,5.194-14.025,7.177-17.047c3.464-5.275,2.705-12.342,0.333-18.19
				c-2.372-5.848-6.159-11.025-8.688-16.807c-6.14-14.043-3.953-31.374,5.485-43.451c1.299-1.662,2.781-3.273,4.708-4.131
				c3.183-1.419,7.031-0.47,9.864,1.56c6.443,4.616,8.082,13.579,7.36,21.472c-0.721,7.893-3.25,15.628-2.996,23.55
				c0.271,8.459,3.867,16.767,9.847,22.755c2.687,2.69,6.09,5.475,6.029,9.277c-0.07,4.378-4.794,7.436-5.453,11.765
				c-1.144,7.526,5.367,11.519,3.245,20.194c-1.876,7.67-9.673,18.677-16.319,18.654
				C368.22,408.169,358.055,393.082,360.952,378.613z"/>
			<path style="fill:none;stroke:#4EA6B8;stroke-miterlimit:10;" d="M377.124,287.956c-4.59,7.613-5.667,16.879-5.16,25.754
				c0.348,6.084,1.39,12.128,3.099,17.978c1.79,6.127,4.315,12.063,5.41,18.351c2.363,13.576-2.115,27.355-2.399,41.132
				c-0.16,7.747,1.448,16.295,7.51,21.122"/>
		</g>
		<g>
			<path style="fill:#89CC96;" d="M417.033,392.824c-0.32-5.15-2.281-10.241-3.374-12.529c-1.908-3.995-0.711-8.835,1.492-12.675
				c2.203-3.84,5.326-7.08,7.631-10.859c5.598-9.179,5.719-21.433,0.304-30.721c-0.745-1.278-1.623-2.538-2.881-3.318
				c-2.078-1.288-4.843-0.993-7.004,0.15c-4.916,2.598-6.904,8.673-7.15,14.228c-0.246,5.554,0.779,11.171-0.148,16.653
				c-0.99,5.854-1.578,10.737-7.081,12.965c-2.982,1.207-5.18,7.061-4.313,16.49c0.489,5.318-4.821,7.498-4.169,13.729
				c0.577,5.509,4.954,13.898,9.576,14.512C409.181,412.68,417.676,403.156,417.033,392.824z"/>
			<path style="fill:none;stroke:#4EA6B8;stroke-miterlimit:10;" d="M414.38,328.279c2.469,5.727,2.34,12.269,1.147,18.39
				c-0.818,4.196-2.115,8.298-3.857,12.202c-1.825,4.089-4.142,7.976-5.499,12.243c-2.929,9.212-1.121,19.214-2.229,28.817
				c-0.623,5.4-2.55,11.189-7.221,13.97"/>
		</g>
		<polygon style="fill:#ED9B43;" points="415.836,464.956 364.007,464.956 359.882,398.039 419.961,398.039 		"/>
		<g>
			<path style="fill:#FFFFFF;" d="M361.06,411.557c4.835-0.206,9.671-0.303,14.506-0.383c4.835-0.082,9.67-0.075,14.506-0.117
				c4.835,0.039,9.671,0.035,14.506,0.115l7.253,0.14c2.418,0.083,4.835,0.132,7.253,0.245c-2.418,0.113-4.835,0.162-7.253,0.245
				l-7.253,0.14c-4.835,0.08-9.67,0.076-14.506,0.115c-4.835-0.042-9.67-0.034-14.506-0.117
				C370.731,411.859,365.895,411.763,361.06,411.557z"/>
		</g>
	</g>
	<g>
		<path style="fill:none;stroke:#000000;stroke-miterlimit:10;" d="M98.191,60.424c0,3.605-2.922,6.527-6.527,6.527l0,0
			c3.605,0,6.527,2.922,6.527,6.527c0-3.605,2.922-6.527,6.527-6.527C101.113,66.951,98.191,64.029,98.191,60.424z"/>
		<path style="fill:none;stroke:#000000;stroke-miterlimit:10;" d="M448.129,407.375c0,3.605-2.922,6.527-6.527,6.527h0
			c3.605,0,6.527,2.922,6.527,6.527c0-3.605,2.922-6.527,6.527-6.527C451.051,413.902,448.129,410.979,448.129,407.375z"/>
		<path style="fill:none;stroke:#000000;stroke-miterlimit:10;" d="M96.932,232.482c0,3.605-2.922,6.527-6.527,6.527l0,0
			c3.605,0,6.527,2.922,6.527,6.527c0-3.605,2.922-6.527,6.527-6.527C99.854,239.009,96.932,236.087,96.932,232.482z"/>
		<path style="fill:none;stroke:#000000;stroke-miterlimit:10;" d="M447.603,311.25c0,3.605-2.922,6.527-6.527,6.527l0,0
			c3.605,0,6.527,2.922,6.527,6.527c0-3.605,2.922-6.527,6.527-6.527C450.525,317.776,447.603,314.854,447.603,311.25z"/>
		<path style="fill:none;stroke:#000000;stroke-miterlimit:10;" d="M362.143,61.011c0,3.605-2.922,6.527-6.527,6.527h0
			c3.605,0,6.527,2.922,6.527,6.527c0-3.605,2.922-6.527,6.527-6.527C365.065,67.538,362.143,64.616,362.143,61.011z"/>
		<path style="fill:none;stroke:#000000;stroke-miterlimit:10;" d="M311.041,165.334c0,3.605-2.922,6.527-6.527,6.527l0,0
			c3.605,0,6.527,2.922,6.527,6.527c0-3.605,2.922-6.527,6.527-6.527C313.964,171.861,311.041,168.939,311.041,165.334z"/>
		<path style="fill:none;stroke:#000000;stroke-miterlimit:10;" d="M159.379,77.873c0,2.427-1.967,4.394-4.394,4.394
			c-2.427,0-4.394-1.967-4.394-4.394c0-2.427,1.967-4.394,4.394-4.394C157.412,73.478,159.379,75.446,159.379,77.873z"/>
		<circle style="fill:none;stroke:#000000;stroke-miterlimit:10;" cx="427.669" cy="284.794" r="4.394"/>
		<circle style="fill:none;stroke:#000000;stroke-miterlimit:10;" cx="324.126" cy="371.907" r="2.097"/>
		<circle style="fill:none;stroke:#000000;stroke-miterlimit:10;" cx="180.692" cy="214.097" r="2.097"/>
		<path style="fill:none;stroke:#000000;stroke-miterlimit:10;" d="M48.513,37.141c0,1.158-0.939,2.097-2.097,2.097
			c-1.158,0-2.097-0.939-2.097-2.097c0-1.158,0.939-2.097,2.097-2.097C47.575,35.044,48.513,35.983,48.513,37.141z"/>
		<path style="fill:none;stroke:#000000;stroke-miterlimit:10;" d="M213.195,39.238c0,1.158-0.939,2.097-2.097,2.097
			s-2.097-0.939-2.097-2.097c0-1.158,0.939-2.097,2.097-2.097S213.195,38.08,213.195,39.238z"/>
		<circle style="fill:none;stroke:#000000;stroke-miterlimit:10;" cx="459.743" cy="214.097" r="2.097"/>
		<path style="fill:none;stroke:#000000;stroke-miterlimit:10;" d="M55.429,191.806c0,2.427-1.967,4.394-4.394,4.394
			s-4.394-1.967-4.394-4.394c0-2.427,1.967-4.394,4.394-4.394S55.429,189.379,55.429,191.806z"/>
		<circle style="fill:none;stroke:#000000;stroke-miterlimit:10;" cx="172.487" cy="389.181" r="4.394"/>
	</g>
	<g>
		<g>
			<g>
				
					<rect x="87.265" y="189.981" transform="matrix(-1 -1.224647e-16 1.224647e-16 -1 226.8144 411.6268)" style="fill:#F7F7F7;" width="52.284" height="31.665"/>
				<polygon style="fill:#FFFFFF;" points="139.549,189.981 113.407,210.784 87.265,189.981 				"/>
				<polygon style="fill:#EDEEEF;" points="87.265,221.646 107.161,205.813 113.407,210.784 119.653,205.813 139.549,221.646 				
					"/>
			</g>
			<g>
				<g>
					<path style="fill:#333333;" d="M139.549,189.981c-4.229,3.629-8.525,7.171-12.833,10.701c-2.141,1.781-4.326,3.505-6.491,5.257
						l-6.507,5.236l-0.311,0.25l-0.311-0.25l-6.508-5.236c-2.164-1.752-4.351-3.475-6.492-5.256l-6.449-5.31
						c-2.127-1.799-4.275-3.57-6.383-5.393c2.249,1.645,4.458,3.34,6.688,5.009l6.622,5.092c2.216,1.686,4.386,3.431,6.579,5.146
						l6.563,5.166h-0.622l6.564-5.165c2.192-1.716,4.364-3.458,6.58-5.145C130.647,196.678,135.064,193.287,139.549,189.981z"/>
				</g>
				<g>
					<path style="fill:#333333;" d="M87.265,221.646c3.224-2.754,6.47-5.48,9.75-8.165l4.909-4.04l4.952-3.985l0.281-0.226
						l0.287,0.226l6.273,4.937h-0.622l6.272-4.937l0.288-0.227l0.282,0.227l4.952,3.985l4.909,4.039
						c3.279,2.685,6.526,5.411,9.749,8.166c-3.408-2.523-6.794-5.074-10.146-7.667l-5.038-3.877l-4.995-3.931h0.569l-6.22,5.004
						l-0.311,0.25l-0.311-0.25l-6.219-5.004h0.568l-4.995,3.931l-5.039,3.877C94.058,216.571,90.673,219.122,87.265,221.646z"/>
				</g>
			</g>
			<g>
				<path style="fill:#DF437B;" d="M144.691,190.614c0.337,3.673-2.369,6.924-6.042,7.261c-3.674,0.337-6.924-2.369-7.261-6.042
					c-0.336-3.674,2.369-6.924,6.042-7.261C141.103,184.235,144.354,186.94,144.691,190.614z"/>
				<text transform="matrix(1 0 0 1 133.1296 193.6632)" style="fill:#FFFFFF; font-family:'Lato-Bold'; font-size:8.464px;">16</text>
			</g>
		</g>
		<g>
			<g>
				<rect x="369.514" y="108.383" style="fill:none;stroke:#000000;stroke-miterlimit:10;" width="20.63" height="20.63"/>
				<rect x="369.514" y="137.098" style="fill:none;stroke:#000000;stroke-miterlimit:10;" width="20.63" height="20.63"/>
				<rect x="369.514" y="165.812" style="fill:none;stroke:#000000;stroke-miterlimit:10;" width="20.63" height="20.63"/>
			</g>
			<polyline style="fill:none;stroke:#000000;stroke-miterlimit:10;" points="372.594,117.812 378.611,123.828 390.144,112.168 			
				"/>
			<g>
				<g>
					<line style="fill:none;stroke:#000000;stroke-miterlimit:10;" x1="403.388" y1="114.183" x2="463.194" y2="114.183"/>
					<g>
						<line style="fill:none;stroke:#000000;stroke-miterlimit:10;" x1="403.388" y1="122.965" x2="427.669" y2="122.965"/>
						<line style="fill:none;stroke:#000000;stroke-miterlimit:10;" x1="435.463" y1="122.965" x2="459.743" y2="122.965"/>
					</g>
				</g>
				<g>
					<line style="fill:none;stroke:#000000;stroke-miterlimit:10;" x1="403.388" y1="143.022" x2="463.194" y2="143.022"/>
					<g>
						<line style="fill:none;stroke:#000000;stroke-miterlimit:10;" x1="403.388" y1="151.804" x2="427.669" y2="151.804"/>
						<line style="fill:none;stroke:#000000;stroke-miterlimit:10;" x1="435.463" y1="151.804" x2="459.743" y2="151.804"/>
					</g>
				</g>
				<g>
					<line style="fill:none;stroke:#000000;stroke-miterlimit:10;" x1="403.388" y1="171.861" x2="463.194" y2="171.861"/>
					<g>
						<line style="fill:none;stroke:#000000;stroke-miterlimit:10;" x1="403.388" y1="180.643" x2="427.669" y2="180.643"/>
						<line style="fill:none;stroke:#000000;stroke-miterlimit:10;" x1="435.463" y1="180.643" x2="459.743" y2="180.643"/>
					</g>
				</g>
			</g>
			<g>
				<line style="fill:none;stroke:#000000;stroke-miterlimit:10;" x1="372.82" y1="141.913" x2="385.882" y2="152.913"/>
				<line style="fill:none;stroke:#000000;stroke-miterlimit:10;" x1="385.882" y1="141.913" x2="372.82" y2="152.913"/>
			</g>
		</g>
		<g>
			<path style="fill:#F9F9F9;" d="M406.376,210.43h-85.754c-8.918,0-16.147,7.229-16.147,16.147v31.919
				c0,8.918,7.229,16.147,16.147,16.147h20.258l-7.478,14.792l-35.653,3.127l40.644,2.183l9.035-20.101h58.948
				c8.917,0,16.146-7.229,16.146-16.147v-31.919C422.523,217.66,415.293,210.43,406.376,210.43z"/>
			<g>
				<circle style="fill:#FFFFFF;" cx="399.844" cy="238.203" r="13.775"/>
				<g>
					<defs>
						<circle id="SVGID_1_" cx="399.844" cy="238.203" r="13.775"/>
					</defs>
					<use xlink:href="#SVGID_1_"  style="overflow:visible;fill:#FCEC8C;"/>
					<clipPath id="SVGID_00000029726954811484176180000007449689249912379280_">
						<use xlink:href="#SVGID_1_"  style="overflow:visible;"/>
					</clipPath>
					<g style="clip-path:url(#SVGID_00000029726954811484176180000007449689249912379280_);">
						<path style="fill:#ED9B43;" d="M405.674,233.938c0-3.22-2.611-5.831-5.831-5.831c-3.22,0-5.831,2.611-5.831,5.831
							c0,3.22,2.61,5.831,5.831,5.831C403.064,239.769,405.674,237.158,405.674,233.938z"/>
						<path style="fill:#ED9B43;" d="M399.844,239.769L399.844,239.769c-5.103,0-9.241,4.137-9.241,9.24v12.838h18.481v-12.838
							C409.084,243.906,404.947,239.769,399.844,239.769z"/>
					</g>
				</g>
				<path style="fill:#74DB65;" d="M411.93,227.899c0,1.572-1.274,2.846-2.846,2.846s-2.846-1.274-2.846-2.846
					c0-1.572,1.274-2.846,2.846-2.846S411.93,226.327,411.93,227.899z"/>
			</g>
			<g>
				<line style="fill:none;stroke:#4EA6B8;stroke-miterlimit:10;" x1="378.779" y1="227.056" x2="318.973" y2="227.056"/>
				<g>
					<line style="fill:none;stroke:#4EA6B8;stroke-miterlimit:10;" x1="378.779" y1="235.838" x2="354.499" y2="235.838"/>
					<line style="fill:none;stroke:#4EA6B8;stroke-miterlimit:10;" x1="346.705" y1="235.838" x2="322.424" y2="235.838"/>
				</g>
				<line style="fill:none;stroke:#4EA6B8;stroke-miterlimit:10;" x1="378.779" y1="244.62" x2="345.506" y2="244.62"/>
				<line style="fill:none;stroke:#4EA6B8;stroke-miterlimit:10;" x1="378.779" y1="253.402" x2="354.499" y2="253.402"/>
				<line style="fill:none;stroke:#4EA6B8;stroke-miterlimit:10;" x1="378.779" y1="262.184" x2="361.093" y2="262.184"/>
			</g>
		</g>
		<g>
			<path style="fill:#4EA6B8;" d="M174.237,149.067v-36.883c0-10.304-8.353-18.658-18.658-18.658H71.988
				c-10.304,0-18.658,8.353-18.658,18.658v36.883c0,10.304,8.353,18.658,18.658,18.658h90.175
				c7.405,11.817,27.307,12.915,27.307,12.915C175.493,166.663,174.237,149.067,174.237,149.067z"/>
			<g>
				<line style="fill:none;stroke:#FFFFFF;stroke-miterlimit:10;" x1="71.79" y1="107.113" x2="149.17" y2="107.113"/>
				<g>
					<line style="fill:none;stroke:#FFFFFF;stroke-miterlimit:10;" x1="71.79" y1="118.476" x2="103.205" y2="118.476"/>
					<line style="fill:none;stroke:#FFFFFF;stroke-miterlimit:10;" x1="113.29" y1="118.476" x2="144.705" y2="118.476"/>
				</g>
				<line style="fill:none;stroke:#FFFFFF;stroke-miterlimit:10;" x1="71.79" y1="129.839" x2="114.841" y2="129.839"/>
				<line style="fill:none;stroke:#FFFFFF;stroke-miterlimit:10;" x1="71.79" y1="141.201" x2="103.205" y2="141.201"/>
				<line style="fill:none;stroke:#FFFFFF;stroke-miterlimit:10;" x1="71.79" y1="152.564" x2="94.673" y2="152.564"/>
			</g>
		</g>
		<g>
			<rect x="36.806" y="262.707" style="fill:#F4D6A6;" width="92.335" height="133.774"/>
			<g>
				<rect x="46.417" y="281.486" style="fill:#FFFFFF;" width="73.113" height="28.509"/>
				<rect x="46.417" y="281.486" style="fill:#DF437B;" width="3.764" height="28.509"/>
			</g>
			<g>
				
					<rect x="46.417" y="319.569" transform="matrix(-1 -1.224647e-16 1.224647e-16 -1 165.9463 667.6472)" style="fill:#FFFFFF;" width="73.113" height="28.509"/>
				<rect x="115.766" y="319.569" style="fill:#F4A81C;" width="3.764" height="28.509"/>
			</g>
			<g>
				<rect x="46.417" y="357.652" style="fill:#FFFFFF;" width="73.113" height="28.509"/>
				<rect x="46.417" y="357.652" style="fill:#4EA6B8;" width="3.764" height="28.509"/>
			</g>
			<g>
				<line style="fill:none;stroke:#000000;stroke-miterlimit:10;" x1="119.564" y1="266.893" x2="125.408" y2="271.814"/>
				<line style="fill:none;stroke:#000000;stroke-miterlimit:10;" x1="125.408" y1="266.893" x2="119.564" y2="271.814"/>
			</g>
			<g>
				<g>
					<path style="fill:#B7B7B7;" d="M70.34,371.907c-2.176,0-4.033,1.354-4.784,3.263h9.569
						C74.373,373.261,72.517,371.907,70.34,371.907z"/>
					<path style="fill:#FCEC8C;" d="M65.556,375.17c-0.229,0.583-0.36,1.216-0.36,1.881c0,2.841,2.303,5.144,5.144,5.144
						c2.841,0,5.144-2.303,5.144-5.144c0-0.665-0.13-1.298-0.36-1.881H65.556z"/>
				</g>
				<g>
					<path style="fill:#ED9B43;" d="M83.6,382.195c2.841,0,5.144-2.303,5.144-5.144H78.456
						C78.456,379.892,80.759,382.195,83.6,382.195z"/>
					<path style="fill:#B7B7B7;" d="M83.6,371.907c-2.841,0-5.144,2.303-5.144,5.144h10.288
						C88.745,374.21,86.441,371.907,83.6,371.907z"/>
				</g>
				<g>
					<path style="fill:#B7B7B7;" d="M102.005,377.051c0-2.841-2.303-5.144-5.144-5.144s-5.144,2.303-5.144,5.144
						c0,0.59,0.104,1.155,0.287,1.683h9.714C101.9,378.206,102.005,377.641,102.005,377.051z"/>
					<path style="fill:#89CC96;" d="M92.003,378.734c0.698,2.013,2.606,3.461,4.857,3.461c2.251,0,4.159-1.448,4.857-3.461H92.003z"
						/>
				</g>
			</g>
			<g>
				<line style="fill:none;stroke:#4EA6B8;stroke-miterlimit:10;" x1="104.127" y1="361.84" x2="65.196" y2="361.84"/>
				<line style="fill:none;stroke:#4EA6B8;stroke-miterlimit:10;" x1="84.653" y1="365.048" x2="65.196" y2="365.048"/>
			</g>
			<g>
				<line style="fill:none;stroke:#E28A3B;stroke-miterlimit:10;" x1="60.971" y1="287.271" x2="104.975" y2="287.271"/>
				<g>
					<line style="fill:none;stroke:#E28A3B;stroke-miterlimit:10;" x1="60.971" y1="291.506" x2="78.836" y2="291.506"/>
					<line style="fill:none;stroke:#E28A3B;stroke-miterlimit:10;" x1="84.571" y1="291.506" x2="102.436" y2="291.506"/>
				</g>
				<line style="fill:none;stroke:#E28A3B;stroke-miterlimit:10;" x1="60.971" y1="295.74" x2="77.056" y2="295.74"/>
				<line style="fill:none;stroke:#E28A3B;stroke-miterlimit:10;" x1="80.702" y1="295.74" x2="96.787" y2="295.74"/>
				<line style="fill:none;stroke:#E28A3B;stroke-miterlimit:10;" x1="60.971" y1="299.975" x2="86.45" y2="299.975"/>
				<line style="fill:none;stroke:#E28A3B;stroke-miterlimit:10;" x1="60.971" y1="304.21" x2="73.984" y2="304.21"/>
			</g>
			<g>
				<circle style="fill:#DF437B;" cx="110.637" cy="300.444" r="6.151"/>
				<polygon style="fill:#FFFFFF;" points="108.345,296.492 108.345,304.395 112.929,300.444 				"/>
			</g>
			<g>
				<rect x="55.054" y="324.944" style="fill:#FCEC8C;" width="5.917" height="19.708"/>
				<rect x="66.055" y="332.506" style="fill:#ED9B43;" width="5.917" height="12.146"/>
				<rect x="77.056" y="338.006" style="fill:#89CC96;" width="5.917" height="6.646"/>
			</g>
			<g>
				<line style="fill:none;stroke:#DF437B;stroke-miterlimit:10;" x1="78.456" y1="324.037" x2="109.56" y2="324.037"/>
				<g>
					<line style="fill:none;stroke:#DF437B;stroke-miterlimit:10;" x1="80.251" y1="328.272" x2="92.879" y2="328.272"/>
					<line style="fill:none;stroke:#DF437B;stroke-miterlimit:10;" x1="96.932" y1="328.272" x2="109.56" y2="328.272"/>
				</g>
				<line style="fill:none;stroke:#DF437B;stroke-miterlimit:10;" x1="98.191" y1="332.506" x2="109.56" y2="332.506"/>
			</g>
		</g>
	</g>
</g>
</svg>
